<?xml version="1.0" encoding="utf-8"?>
<svg version="1.1" xmlns:xlink="http://www.w3.org/1999/xlink" width="12px" height="12px" viewBox="117 820  12 12" xmlns="http://www.w3.org/2000/svg">
  <path d="M 123 820  C 126.36 820  129 822.64  129 826  C 129 829.36  126.36 832  123 832  C 119.64 832  117 829.36  117 826  C 117 822.64  119.64 820  123 820  Z " fill-rule="nonzero" fill="#ffffff" stroke="none" />
  <path d="M 123 820.5  C 126.08 820.5  128.5 822.92  128.5 826  C 128.5 829.08  126.08 831.5  123 831.5  C 119.92 831.5  117.5 829.08  117.5 826  C 117.5 822.92  119.92 820.5  123 820.5  Z " stroke-width="1" stroke="#797979" fill="none" />
  <path d="M 123 829  C 121.32 829  120 827.68  120 826  C 120 824.32  121.32 823  123 823  C 124.68 823  126 824.32  126 826  C 126 827.68  124.68 829  123 829  " fill-rule="nonzero" fill="#797979" stroke="none" />
</svg>