<?xml version="1.0" encoding="utf-8"?>
<svg version="1.1" xmlns:xlink="http://www.w3.org/1999/xlink" width="12px" height="12px" viewBox="212 820  12 12" xmlns="http://www.w3.org/2000/svg">
  <path d="M 218 820  C 221.36 820  224 822.64  224 826  C 224 829.36  221.36 832  218 832  C 214.64 832  212 829.36  212 826  C 212 822.64  214.64 820  218 820  Z " fill-rule="nonzero" fill="#ffffff" stroke="none" />
  <path d="M 218 820.5  C 221.08 820.5  223.5 822.92  223.5 826  C 223.5 829.08  221.08 831.5  218 831.5  C 214.92 831.5  212.5 829.08  212.5 826  C 212.5 822.92  214.92 820.5  218 820.5  Z " stroke-width="1" stroke="#797979" fill="none" />
  <path d="M 218 829  C 216.32 829  215 827.68  215 826  C 215 824.32  216.32 823  218 823  C 219.68 823  221 824.32  221 826  C 221 827.68  219.68 829  218 829  " fill-rule="nonzero" fill="#797979" stroke="none" />
</svg>